<svg width="60" height="80" viewBox="0 0 36 48" fill="#fff" xmlns="http://www.w3.org/2000/svg"><path d="M33 47.5H3A2.503 2.503 0 0 1 .5 45V8C.5 6.621 1.622 5.5 3 5.5h7v1H3c-.827 0-1.5.673-1.5 1.5v37c0 .827.673 1.5 1.5 1.5h30c.827 0 1.5-.673 1.5-1.5V8c0-.827-.673-1.5-1.5-1.5h-7.02v-1H33c1.378 0 2.5 1.121 2.5 2.5v37c0 1.379-1.122 2.5-2.5 2.5z"/><path d="M6.97 20.677l-2.324-2.323.708-.707 1.677 1.676 5.649-4.707.64.768-6.35 5.293zm0 10l-2.324-2.323.708-.707 1.677 1.676 5.649-4.707.64.768-6.35 5.293zm0 10l-2.324-2.324.708-.706 1.677 1.676 5.649-4.707.64.768-6.35 5.293zM31 15.5H18v1h13v-1zm0 10H18v1h13v-1zm0 10H18v1h13v-1zm0-16H18v1h13v-1zm0 10H18v1h13v-1zm0 10H18v1h13v-1zm-4.5-30h-17V5c0-1.379 1.122-2.5 2.5-2.5h2.837c.38 0 .732-.242.942-.65A2.494 2.494 0 0 1 18 .5c.938 0 1.788.518 2.22 1.35.211.408.564.65.943.65H24c1.378 0 2.5 1.121 2.5 2.5v4.5zm-16-1h15V5c0-.827-.673-1.5-1.5-1.5h-2.837c-.76 0-1.444-.444-1.83-1.188A1.497 1.497 0 0 0 18 1.5c-.563 0-1.073.31-1.333.812-.386.744-1.07 1.188-1.83 1.188H12c-.827 0-1.5.673-1.5 1.5v3.5z"/></svg>