<svg width="98" height="80" viewBox="0 0 98 80" fill="#fff" xmlns="http://www.w3.org/2000/svg"><path d="M91.547 55.655l-15.939-4.271V46.09c3.17-2.745 5.187-6.788 5.187-11.301v-8.066h1.576c2.059 0 3.733-1.587 3.733-3.537v-.326c0-1.95-1.675-3.537-3.733-3.537h-.109c-.717-6.271-4.992-11.71-10.942-13.876l-.268-1.09-.036.009-.217-.878c-.203-.815-.73-1.6-1.487-2.207-.735-.592-1.601-.917-2.436-.917h-2.59c-.835 0-1.699.326-2.434.917-.756.606-1.284 1.391-1.486 2.209l-.479 1.941c-5.971 2.156-10.263 7.605-10.981 13.892h-.108c-2.059 0-3.733 1.587-3.733 3.537v.325c0 1.95 1.675 3.537 3.733 3.537h1.575v8.066c0 4.672 2.155 8.848 5.521 11.593v4.999l-16.315 4.273a8.339 8.339 0 0 0-2.842 1.352l-1.244-.334V52.53c2.608-2.29 4.267-5.639 4.267-9.375v-6.457h1.119c1.791 0 3.248-1.385 3.248-3.087v-.269c0-1.68-1.421-3.051-3.181-3.085-.646-5.13-4.148-9.563-9.009-11.372l-.198-.805-.029.007-.178-.722c-.176-.708-.632-1.387-1.285-1.912-.645-.519-1.376-.793-2.114-.793h-2.13c-.737 0-1.469.274-2.114.793-.651.524-1.107 1.204-1.283 1.913l-.372 1.506c-4.877 1.801-8.393 6.246-9.04 11.385-1.76.034-3.181 1.405-3.181 3.085v.269c0 1.702 1.457 3.087 3.248 3.087h1.118v6.457c0 3.87 1.771 7.334 4.543 9.625v3.887l-13.288 3.48C2.563 60.952.5 63.587.5 66.703v12.932h2V66.703c0-2.193 1.462-4.05 3.638-4.62l4.233-1.108v2.854H8.726v5.307h1.646v2.097h-2.47l.009 8.404 2-.002-.007-6.402h2.467v-4.097h2.112v4.097H33.5v5.903h2V63.414c0-2.766 1.843-5.106 4.584-5.826L45.5 56.17v3.965h-2v6.02h2v2.98h-3.001l.01 10.001 2-.002-.008-7.999H47.5v-4.98h3v4.98h30v-4.98h2.956l-.02 4.984 3.08-.003.13 8.016 2-.033-.163-9.984-3.039.003.012-2.982H87.5v-6.02h-2.02l.017-4.03 5.532 1.482c2.674.717 4.471 3.059 4.471 5.827v15.721h2V63.414c0-3.685-2.393-6.804-5.953-7.759zM47.063 23.186v-.326c0-.848.777-1.537 1.733-1.537h1.972v-.002H61.82v-2H50.922c.649-4.983 3.852-9.332 8.37-11.47l-1.278 5.202 1.941.477 2.074-8.439.277-1.121c.096-.388.387-.8.798-1.13.381-.307.8-.476 1.181-.476h2.59c.381 0 .802.169 1.184.476.411.33.702.742.798 1.13l.744 3.011.039.013 1.606 6.537 1.941-.477-1.273-5.183c4.814 2.295 8.126 7.105 8.431 12.509l.053.943h1.973c.956 0 1.733.689 1.733 1.537v.325c0 .848-.777 1.537-1.733 1.537H48.796c-.956.001-1.733-.689-1.733-1.536zM12.011 33.612v-.269c0-.599.56-1.086 1.248-1.086h1.79v-.002h8.924v-2h-8.758a12.082 12.082 0 0 1 6.418-8.937l-.963 3.916 1.941.477 1.679-6.831.255-1.031c.07-.283.287-.588.595-.836.282-.227.589-.352.861-.352h2.13c.273 0 .58.125.861.352.31.249.526.554.597.834l.634 2.573.034.011 1.298 5.28 1.941-.477-.958-3.896c3.719 1.92 6.256 5.722 6.496 9.976l.053.943h1.79c.688 0 1.248.487 1.248 1.086v.269c0 .6-.56 1.087-1.248 1.087H13.259c-.689 0-1.248-.487-1.248-1.087zm4.366 9.544v-6.123h21.381v6.123c0 5.781-4.703 10.484-10.483 10.484h-.413c-5.782.001-10.485-4.702-10.485-10.484zm10.484 12.485h.413c2.265 0 4.384-.615 6.217-1.674v2.978l-6.21 5.105-6.361-5.063v-2.854a12.393 12.393 0 0 0 5.941 1.508zm-14.49 4.809l2.112-.554v3.932h-2.112V60.45zm-1.645 5.378h5.403v1.307h-5.403v-1.307zm5.757 5.403v-2.097h1.646v-5.307h-1.646v-4.455l3.177-.832 7.641 6.081 7.406-6.089.378.101a7.907 7.907 0 0 0-1.585 4.78v7.817H16.483v.001zm35.888-36.442v-7.66h26.423v7.66c0 7.146-5.813 12.96-12.96 12.96h-.502c-7.146 0-12.961-5.813-12.961-12.96zm12.961 14.96h.502a14.84 14.84 0 0 0 7.773-2.202v4.105l-7.764 6.382-7.951-6.327V47.75a14.86 14.86 0 0 0 7.44 1.999zM47.5 55.646l3-.786v5.275h-3v-4.489zm-2 6.489h7v2.02h-7v-2.02zm33 7h-26v-2.98h2v-6.02h-2v-5.799l4.127-1.08 9.238 7.351 8.954-7.362 3.681.985v5.904h-2v6.02h2v2.981zm7-4.981h-7v-2.02h7v2.02zm-2.02-4.019H80.5v-5.368l2.999.803-.019 4.565z"/></svg>