<svg width="82" height="81" viewBox="0 0 82 81" fill="#fff" xmlns="http://www.w3.org/2000/svg"><path d="M74.8 71.2H66c-.6 0-1-.4-1-1s.4-1 1-1h8.9c.6 0 1 .4 1 1s-.5 1-1.1 1zm0 4H66c-.6 0-1-.4-1-1s.4-1 1-1h8.9c.6 0 1 .4 1 1s-.5 1-1.1 1zm-3-8H66c-.6 0-1-.4-1-1s.4-1 1-1h5.9c.6 0 1 .4 1 1s-.5 1-1.1 1zm-48.9-1.3H12.5c-.6 0-1-.4-1-1s.4-1 1-1h10.4c.6 0 1 .4 1 1s-.4 1-1 1zm0 5H6.8c-.6 0-1-.4-1-1s.4-1 1-1h16.1c.6 0 1 .4 1 1s-.4 1-1 1zm0 5H1.3c-.6 0-1-.4-1-1s.4-1 1-1h21.6c.6 0 1 .4 1 1s-.4 1-1 1z"/><path d="M76.3 24.7H36V5.1c0-2.8-2.2-5-5-5H6.3c-2.8 0-5 2.2-5 5v34.4c0 2.8 2.2 5 5 5h19.6v30.6c0 2.8 2.3 5 5 5h45.4c2.8 0 5-2.2 5-5V29.7c0-2.7-2.3-5-5-5zm-25.7 2.2h6v20.5h-6V26.9zm28.5 22.5v6h-51v-6h51zM6.3 42.5c-1.7 0-3-1.3-3-3V5.1c0-1.6 1.3-3 3-3H31c1.7 0 3 1.4 3 3v34.4c0 1.7-1.3 3-3 3H6.3zm24.7 2c2.8 0 5-2.3 5-5V26.7h12.6v20.7H27.9v-2.9H31zm17.6 33.6H30.9c-1.6 0-3-1.3-3-3V57.4h20.7v20.7zm8-.2h-6V57.4h6v20.5zm22.7-2.8c0 1.7-1.3 3-3 3H58.6V57.4h20.7v17.7zm0-27.7H58.6V26.7h17.7c1.7 0 3 1.4 3 3v17.7z"/><path d="M23.6 8.4h-10c-.6 0-1-.4-1-1s.4-1 1-1h10c.6 0 1 .4 1 1s-.4 1-1 1zm5 6h-20c-.6 0-1-.4-1-1s.4-1 1-1h20c.6 0 1 .4 1 1s-.4 1-1 1zm0 4h-20c-.6 0-1-.4-1-1s.4-1 1-1h20c.6 0 1 .4 1 1s-.4 1-1 1zm-10 4.9c-4.4 0-8 3.6-8 8s3.6 8 8 8 8-3.6 8-8-3.6-8-8-8zm0 14c-3.3 0-6-2.7-6-6s2.7-6 6-6 6 2.7 6 6-2.7 6-6 6z"/><path d="M17.8 34.9c-.3 0-.5-.1-.7-.3L15 32.5c-.4-.4-.4-1 0-1.4.4-.4 1-.4 1.4 0l1.4 1.4 3.1-3.1c.4-.4 1-.4 1.4 0 .4.4.4 1 0 1.4l-3.9 3.9c-.1.1-.4.2-.6.2z"/></svg>