<svg width="60" height="60" viewBox="0 0 60 60" fill="none" xmlns="http://www.w3.org/2000/svg"><path d="M58 30c0 15.464-12.536 28-28 28S2 45.464 2 30 14.536 2 30 2s28 12.536 28 28z" fill="#fff"/><path d="M30 0c16.568 0 30 13.432 30 30 0 16.566-13.432 30-30 30C13.433 60 0 46.567 0 30 0 13.432 13.434 0 30 0zm0 2.572C14.85 2.572 2.572 14.85 2.572 30S14.85 57.428 30 57.428 57.428 45.15 57.428 30 45.151 2.572 30 2.572z" fill="#5A7262"/><path d="M12.266 29.87l-1.687 1.928 14.6 12.811a1.286 1.286 0 0 0 1.814-.118c7.841-8.91 14.983-18.564 22.426-27.822l-1.998-1.606-21.553 26.736-13.602-11.93z" fill="#5A7262"/></svg>