<svg width="101" height="101" viewBox="0 0 101 101" fill="none" xmlns="http://www.w3.org/2000/svg"><path d="M9.952 20h-7.5c-1.64 0-2.42-.76-2.42-2.39V2.46C.032.77.832 0 2.552 0h15c1.73 0 2.48.76 2.48 2.48v15c0 1.82-.71 2.5-2.57 2.51-2.51.01-5.01.01-7.51.01zm40 0h-7.5c-1.64 0-2.4-.75-2.4-2.37-.014-5.087-.02-10.143-.02-15.17 0-1.7.79-2.46 2.52-2.46h15c1.73 0 2.48.76 2.48 2.48v15c0 1.82-.71 2.5-2.57 2.51-2.51.01-5.01.01-7.51.01zm40 0h-7.5c-1.64 0-2.4-.75-2.4-2.37-.014-5.087-.02-10.143-.02-15.17 0-1.7.8-2.46 2.52-2.46h15c1.73 0 2.48.76 2.48 2.48v15c0 1.82-.71 2.5-2.57 2.51-2.51.01-5.01.01-7.51.01zm-79.83 20h7.5c1.64 0 2.39.75 2.4 2.38.006 5.08.01 10.187.01 15.32a2 2 0 0 1-2.34 2.3H2.382a2 2 0 0 1-2.35-2.3V42.23A2 2 0 0 1 2.312 40h7.81zm49.91 10.1v7.5c0 1.65-.73 2.38-2.37 2.39-5.087.007-10.144.01-15.17.01-1.71 0-2.46-.76-2.46-2.5v-15c0-1.72.76-2.48 2.47-2.48h15c1.81 0 2.5.74 2.51 2.58.02 2.5.02 5 .02 7.5zm40 0v7.5c0 1.65-.73 2.38-2.37 2.39-5.087.007-10.144.01-15.17.01-1.71 0-2.46-.77-2.46-2.51v-15c0-1.72.76-2.48 2.47-2.48h15c1.8 0 2.5.74 2.51 2.59.02 2.5.02 5 .02 7.5zM9.932 100h-7.5a2.09 2.09 0 0 1-2.4-2.4V82.44A2.1 2.1 0 0 1 2.412 80h15.31a2.049 2.049 0 0 1 2.31 2.34v15.31c0 1.62-.76 2.32-2.43 2.33-2.57.02-5.12.02-7.67.02zm50.1-10v7.5c0 1.76-.71 2.48-2.43 2.49h-15.15a2.088 2.088 0 0 1-1.83-.567 2.08 2.08 0 0 1-.59-1.823V82.44a2.1 2.1 0 0 1 2.38-2.44h15.31a2.059 2.059 0 0 1 2.31 2.34V90zm30.11-10h7.34c1.82 0 2.53.73 2.54 2.56V97.4c0 1.91-.69 2.57-2.66 2.58h-14.68c-1.93 0-2.63-.7-2.63-2.62-.014-4.907-.02-9.8-.02-14.68 0-2 .71-2.66 2.75-2.67h7.34l.02-.01z" fill="#5a7262"/></svg>