<svg xmlns="http://www.w3.org/2000/svg" viewBox="0 0 36.02 41"><defs><style>.cls-1{fill:#576d58}.cls-2{fill:none;stroke:#576d58;stroke-miterlimit:10;stroke-width:.5px}</style></defs><title>item-repeat</title><g id="Слой_2" data-name="Слой 2"><g id="Слой_1-2" data-name="Слой 1"><path class="cls-1" d="M17.5 20.67a1.24 1.24 0 1 1 1.23 1.23 1.24 1.24 0 0 1-1.23-1.23z"/><path class="cls-2" d="M19.6 20.46l16.01-9.31m-16.88 9.71v19.5"/><path class="cls-1" d="M19.6 1.24A1.24 1.24 0 1 1 18.36 0a1.24 1.24 0 0 1 1.24 1.24zM2.47 11.15a1.24 1.24 0 1 1-1.23-1.24 1.24 1.24 0 0 1 1.23 1.24z"/><path class="cls-2" d="M17.53 1.84l-15.5 9.1m17.05-9.51l16.31 9.51m-16.83 9.73L2.25 11.15m-.87-.21v19.04"/><path class="cls-1" d="M2.62 30.77a1.24 1.24 0 1 1-1.24-1.24 1.24 1.24 0 0 1 1.24 1.24z"/><path class="cls-2" d="M2.28 31.37l15.99 9.42m17.62-10.02L19.03 40.79"/></g></g></svg>