<svg width="227" height="42" viewBox="0 0 227 42" fill="none" xmlns="http://www.w3.org/2000/svg">
<path d="M71.0394 29.8048L69.1883 37.6085H44V36.4091H45.5174C46.028 36.4621 46.5397 36.3187 46.9437 36.0093C47.0904 35.8461 47.2023 35.6559 47.2726 35.4499C47.343 35.244 47.3705 35.0263 47.3534 34.8099V6.21602C47.3828 5.77931 47.2357 5.34874 46.9437 5.0166C46.5367 4.71389 46.0259 4.57598 45.5174 4.63159H44.2124V3.41735H53.8325V4.63159H52.4062C51.8712 4.59808 51.3393 4.73304 50.8888 5.0166C50.5968 5.34874 50.4497 5.77931 50.4791 6.21602V34.8099C50.4621 35.0263 50.4895 35.244 50.5599 35.4499C50.6302 35.6559 50.7421 35.8461 50.8888 36.0093C51.338 36.2971 51.8697 36.4372 52.4062 36.4091H62.0263C63.8332 36.3975 65.5765 35.7568 66.9426 34.6025C68.4285 33.1782 69.4793 31.3787 69.9773 29.405L71.0394 29.8048ZM107.411 29.8048L105.165 37.6085H80.174V36.4091H81.403C81.6705 36.4432 81.9422 36.4255 82.2026 36.3569C82.463 36.2882 82.7069 36.1701 82.9204 36.0093C83.2056 35.6741 83.3469 35.2444 83.3149 34.8099V6.21602C83.3408 5.78225 83.2002 5.35463 82.9204 5.0166C82.7058 4.85834 82.4613 4.74287 82.201 4.67682C81.9406 4.61076 81.6695 4.59539 81.403 4.63159H80.174V3.41735H104.543L106.804 10.2141L105.787 10.6139C104.971 8.85925 103.781 7.29438 102.297 6.02353C101.154 5.08286 99.695 4.58719 98.2003 4.63159H88.3677C87.8588 4.61829 87.3573 4.75226 86.9263 5.0166C86.6232 5.34414 86.4651 5.77522 86.4862 6.21602V18.6101H96.5312C97.0549 18.6657 97.5846 18.6053 98.0811 18.4336C98.5776 18.2618 99.0281 17.9831 99.399 17.618C100.086 16.779 100.446 15.7298 100.416 14.6565V13.457H101.66V25.3033H100.446V24.4888C100.5 23.2569 100.143 22.0411 99.4293 21.0238C99.0958 20.6018 98.6572 20.27 98.1553 20.0601C97.6533 19.8502 97.1047 19.769 96.5615 19.8244H86.4862V34.8099C86.4691 35.0263 86.4966 35.244 86.5669 35.4499C86.6373 35.6559 86.7491 35.8461 86.8959 36.0093C87.3253 36.2788 87.8269 36.418 88.3374 36.4091H97.7451C99.6207 36.4234 101.44 35.7827 102.874 34.6025C104.506 33.2172 105.714 31.4184 106.364 29.405L107.411 29.8048ZM145.663 11.0137L144.647 11.2211C144.004 9.31283 143.106 7.4956 141.976 5.81621C140.95 4.97071 139.629 4.54609 138.289 4.63159H133.145C132.584 4.63159 132.326 4.88332 132.326 5.4164V34.8099C132.305 35.0266 132.331 35.2451 132.401 35.4516C132.472 35.6581 132.586 35.848 132.735 36.0093C133.159 36.2802 133.656 36.4196 134.162 36.4091H136.013V37.6085H125.391V36.4091H127.227C127.738 36.4621 128.25 36.3187 128.654 36.0093C128.803 35.8473 128.918 35.6576 128.991 35.4516C129.064 35.2456 129.094 35.0274 129.079 34.8099V5.4164C129.079 4.88332 128.79 4.63159 128.244 4.63159H123.692C122.234 4.60759 120.804 5.02112 119.595 5.81621C118.912 6.3641 118.078 8.15584 116.925 11.2211L115.695 11.0137L117.547 3.41735H143.994L145.663 11.0137ZM183.598 11.0137L182.581 11.2211C181.944 9.31019 181.046 7.49211 179.91 5.81621C178.885 4.97071 177.563 4.54609 176.223 4.63159H171.155C171.045 4.61427 170.932 4.62249 170.826 4.65556C170.719 4.68864 170.622 4.74566 170.542 4.82202C170.463 4.89839 170.402 4.99196 170.367 5.09521C170.331 5.19845 170.32 5.30846 170.336 5.4164V34.8099C170.319 35.0263 170.346 35.244 170.417 35.4499C170.487 35.6559 170.599 35.8461 170.745 36.0093C171.169 36.2802 171.666 36.4196 172.172 36.4091H174.023V37.6085H163.401V36.4091H165.237C165.505 36.4449 165.777 36.428 166.038 36.3593C166.298 36.2906 166.542 36.1716 166.755 36.0093C167.045 35.6764 167.192 35.2464 167.164 34.8099V5.4164C167.18 5.30846 167.17 5.19845 167.134 5.09521C167.098 4.99196 167.038 4.89839 166.958 4.82202C166.878 4.74566 166.781 4.68864 166.675 4.65556C166.568 4.62249 166.455 4.61427 166.345 4.63159H161.793C160.336 4.61044 158.906 5.02372 157.696 5.81621C157.013 6.3641 156.179 8.15584 155.026 11.2211L153.797 11.0137L155.648 3.41735H182.08L183.598 11.0137ZM226.979 20.4167C227.21 25.1212 225.519 29.7229 222.275 33.2106C220.751 34.7782 218.905 36.0144 216.857 36.8385C214.81 37.6627 212.608 38.0562 210.394 37.9935C208.184 38.0309 205.99 37.6257 203.946 36.8031C201.903 35.9804 200.054 34.7578 198.513 33.2106C195.377 30.1405 193.809 25.8758 193.809 20.4167C193.599 15.7996 195.23 11.2827 198.362 7.81526C199.908 6.20544 201.795 4.94267 203.891 4.1143C205.987 3.28592 208.242 2.91171 210.5 3.01753C215.831 3.01753 219.928 4.68589 222.791 8.02257C225.635 11.546 227.117 15.9336 226.979 20.4167ZM223.095 20.4167C223.299 16.3094 222.15 12.2462 219.817 8.82219C218.752 7.37241 217.331 6.20625 215.685 5.43023C214.039 4.65421 212.22 4.29309 210.394 4.37986C208.688 4.39082 207.004 4.75253 205.451 5.44142C203.898 6.13031 202.511 7.1309 201.381 8.37796C198.923 10.915 197.694 14.9131 197.694 20.3723C197.694 26.1029 198.984 30.2343 201.594 32.7664C202.698 34.0048 204.059 35.001 205.587 35.6896C207.114 36.3781 208.774 36.7435 210.456 36.7617C212.139 36.7799 213.806 36.4505 215.349 35.795C216.892 35.1396 218.275 34.1731 219.407 32.9589C221.835 30.5896 223.049 26.4089 223.049 20.4167H223.095Z" fill="#576D58"/>
<path d="M27.9033 14.1317C27.4857 12.8769 26.9538 11.6626 26.3143 10.504L15.1916 20.7313V12.1005L22.2069 5.07414C20.028 2.94576 17.461 1.25042 14.6434 0.0790365L14.4607 0L14.2621 0.0790365C10.1614 1.79426 6.62498 4.61693 4.05303 8.2277C1.4542 11.8928 0.0406081 16.2591 0.000861773 20.7441C-0.0388846 25.2292 1.2971 29.6196 3.83058 33.3297C6.37475 37.0621 9.92373 40.0065 14.0714 41.8261L14.4607 42L14.858 41.8261C19.0082 40.0116 22.5642 37.0764 25.1226 33.3534C27.6713 29.6254 29.0232 25.216 28.9997 20.7076C28.9701 18.4731 28.6004 16.256 27.9033 14.1317ZM15.1916 1.35152C17.3317 2.42076 19.2911 3.81537 20.9993 5.48513L15.1916 10.7332V1.35152ZM13.7218 39.5183C10.3338 37.9 7.41423 35.4524 5.23681 32.405C2.80498 28.9806 1.48024 24.9001 1.4392 20.7076V20.0595L13.7218 32.1758V39.5183ZM13.7218 30.4212L1.47892 19.2533C1.63784 16.7255 2.25981 14.2478 3.31417 11.9424L13.7218 22.1302V30.4212ZM13.7218 20.7471L3.57635 11.3813C4.57504 9.35373 5.89482 7.49907 7.48519 5.88822L13.7218 12.1005V20.7471ZM13.7218 10.749L7.90626 5.46933C9.61761 3.80052 11.583 2.41082 13.7298 1.35152L13.7218 10.749ZM15.1996 22.1302L25.5755 11.974C25.9548 12.8136 26.2786 13.6769 26.5448 14.5585C27.0079 16.1014 27.2879 17.693 27.379 19.3007L15.1996 30.3658V22.1302ZM23.6528 32.405C21.4827 35.4469 18.5749 37.8938 15.1996 39.5183V32.1837L27.3948 20.1306V20.7155C27.3617 24.8812 26.0567 28.9386 23.6528 32.3496V32.405Z" fill="#576D58"/>
</svg>
