<svg width="298" height="60" viewBox="0 0 298 60" fill="none" xmlns="http://www.w3.org/2000/svg">
<path fill-rule="evenodd" clip-rule="evenodd" d="M230.81 2.07034C235.379 4.32376 239.94 6.57718 244.787 8.64189C249.069 10.7066 253.343 12.7769 257.339 14.8416C263.046 16.9063 267.893 18.7878 272.176 20.0977C283.017 23.4778 289.862 25.7313 292.711 26.6693C295.282 27.6073 297.271 28.3621 297.845 29.1114L295.847 32.3028C274.068 39.2037 262.203 45.2553 247.653 50.1395C232.817 55.2125 223.122 58.2152 218.267 58.9645L215.982 57.0885C214.557 57.6546 213.411 58.2152 212.273 58.7758C211.986 58.7758 211.7 58.7758 211.7 58.7758C211.127 58.7758 210.848 58.7758 210.562 58.7758C210.275 58.5871 210.275 58.3984 210.275 58.2152C210.275 58.0265 210.275 57.8378 210.562 57.6546C212.273 56.5279 213.984 55.5899 215.982 54.6464L215.982 54.2689C215.131 54.6464 213.698 55.0182 212.846 55.5844C213.133 55.2069 213.419 54.8351 213.706 54.6464C214.557 54.0802 215.417 53.5197 216.269 52.9591L216.555 52.5817L217.98 52.0211C227.396 47.8861 241.938 42.63 241.938 42.63C241.938 42.63 243.952 41.3831 247.653 39.8789C251.354 38.3748 196.325 57.6565 140.232 59.2551C84.1392 60.8536 15.9832 30.7987 15.9832 30.7987L17.1212 29.4833C13.1255 29.4833 9.12964 29.2945 5.1423 29.1058C5.1423 28.7284 5.42892 28.5397 5.42892 28.3565C5.14231 28.3565 4.56911 28.3565 4.0043 28.3565C4.0043 28.1678 4.0043 27.9791 3.71768 27.796C4.29091 27.4186 4.5691 27.2354 4.85571 27.0467C7.99163 26.6693 11.136 26.6693 14.2719 26.4805L11.9874 25.92L16.8346 25.3594C11.1276 25.1707 5.42054 24.6101 0.000122489 24.2327C0.286739 24.044 0.573334 23.8553 0.573334 23.4834C3.70925 23.2947 6.85359 23.106 9.9895 23.106C12.8388 23.2947 15.9832 23.4834 18.8325 23.4834L16.8346 23.106L16.8346 22.9173C13.9853 22.9173 11.1275 22.7285 8.27823 22.7285C8.27823 22.5398 8.27822 22.5398 7.99161 22.5398C7.99161 22.5398 7.99161 22.1624 7.99161 21.9737C8.27822 21.9737 8.56486 21.785 8.84305 21.785C11.6923 21.9737 14.5501 21.9737 17.3994 21.9737L18.2592 20.6583C18.2592 20.6583 76.6339 55.7806 140.232 53.3384C203.83 50.8963 253.613 25.1651 253.613 25.1651C242.199 21.5963 233.07 16.3346 226.511 9.95175C221.95 7.1322 217.381 4.1295 213.386 0.938075C213.386 0.371944 213.959 0.183228 214.81 6.76744e-05C215.384 0.377488 215.948 0.938077 216.522 1.3155C216.808 1.12679 217.095 1.12678 217.373 1.12678C219.658 2.63092 222.22 4.13504 224.505 5.63362L225.643 4.3182C224.791 3.94078 224.218 3.75762 223.358 3.19149C223.645 3.00278 223.645 2.63091 224.21 2.25349C224.783 2.81962 225.634 3.00279 226.494 3.38021L227.354 2.25349C229.065 2.81962 230.49 3.56891 231.915 4.12949C230.777 3.75207 230.203 3.1915 229.352 2.62537C229.065 2.62537 229.065 2.62537 228.779 2.43666C228.205 2.24795 227.641 1.87607 227.354 1.68736C227.354 1.49865 227.354 1.30994 227.641 1.30994C227.641 1.12123 227.927 1.12123 227.927 1.12123C227.927 1.30994 228.501 1.30994 228.501 1.49865C229.074 1.68736 229.36 1.87608 229.36 2.05924C229.647 2.05924 229.934 2.05924 230.212 2.05924C230.212 2.05924 230.498 2.05924 230.785 2.05924L230.81 2.07034Z" fill="white" fill-opacity="0.95"/>
</svg>
