<svg width="77" height="177" viewBox="0 0 77 177" fill="none" xmlns="http://www.w3.org/2000/svg">
<path fill-rule="evenodd" clip-rule="evenodd" d="M61.9429 169.062C61.8721 169.137 61.8719 169.137 61.7055 169.072C60.8694 171.409 60.1037 173.672 59.2422 175.794L59.1466 175.655C58.6738 175.676 58.2008 175.697 57.8234 175.857C57.7528 175.933 57.5871 175.867 57.4211 175.803C56.9939 175.535 56.7319 175.331 56.3052 175.063C53.2742 163.339 49.388 151.079 44.8592 138.057C39.441 122.846 33.0317 107.967 25.3241 93.505C25.5813 92.9909 25.9082 92.4008 26.1405 91.6722C26.7088 91.7907 27.4428 91.9731 27.9409 92.1673C28.3685 92.4355 28.6297 92.6393 28.9862 92.9827C30.4189 95.0756 31.7551 97.0275 33.0219 99.0554C32.9269 98.9162 32.9011 98.7016 32.7806 98.3474C32.6105 97.5647 32.3441 96.642 32.1738 95.8595C32.2192 95.5697 32.4558 95.5593 32.5262 95.4844C32.7628 95.474 32.8334 95.3989 33.0941 95.602C33.1902 95.7419 33.381 96.0211 33.4061 96.236C33.5969 96.5147 33.6215 96.7289 33.7174 96.8689C40.7171 107.984 46.6104 119.795 51.2301 132.239C52.6973 135.983 53.9265 139.736 54.8251 143.362C52.715 131.382 50.0358 119.284 46.7183 107.142C43.5719 95.7828 39.9517 84.4451 35.8593 73.1283C32.7148 65.8653 29.1679 58.5495 25.2436 51.3928C17.3456 36.6524 9.09465 22.2859 0.537659 8.00654C1.01021 7.98481 1.3877 7.82505 1.86054 7.80415C3.31818 10.1109 4.7752 12.4171 6.37316 14.5744C8.97698 18.5551 11.5796 22.5353 14.1117 26.5906C11.5049 21.8926 8.6606 17.2031 5.74526 12.5891C5.81623 12.5142 5.88641 12.4389 5.86203 12.225C6.09803 12.2142 6.2639 12.2791 6.43011 12.3437C8.79267 15.6163 11.0589 18.7499 13.1141 22.1077C9.64714 16.1529 5.96854 10.424 2.14907 4.8445C2.09901 4.41535 2.14458 4.12592 2.26056 3.76152C2.40193 3.6116 2.63799 3.60124 2.96979 3.72991C3.13639 3.79465 3.30148 3.85928 3.39711 3.99898C3.75453 4.34246 4.0403 4.75991 4.3272 5.17901C4.49341 5.2436 4.68422 5.52232 4.77963 5.6617C4.65933 5.30733 4.46835 5.02876 4.27731 4.74968C4.36829 4.17096 4.29283 3.52736 4.47911 3.08701C4.64111 2.43384 4.87229 1.70473 5.12903 1.18994C5.7683 1.23396 6.33626 1.3516 6.97531 1.39528C7.40257 1.66383 7.82955 1.93155 8.2571 2.20093C19.4088 19.0244 28.814 36.5007 36.5945 54.9843C48.5284 83.2724 56.2481 110.741 59.7281 137.179C59.9993 138.82 60.3397 140.386 60.6811 141.952C62.3335 137.782 64.2472 133.815 66.1609 129.849C67.586 127.127 69.1314 124.757 70.9389 122.594C71.9458 121.039 72.9521 119.485 73.9598 117.931C73.9985 120.302 73.7758 122.467 73.4578 124.493C73.9512 123.969 74.4443 123.443 75.0333 123.058C75.0579 123.272 75.2492 123.551 75.2742 123.766C75.3942 124.119 75.5149 124.474 75.5403 124.688C75.1672 125.567 74.7946 126.446 74.4217 127.326C74.2152 128.269 73.817 128.934 73.5146 129.737C73.7061 130.016 73.9672 130.221 74.1576 130.499C74.6806 130.907 75.0379 131.25 75.4197 131.808C75.7062 132.227 75.922 132.72 76.042 133.074C76.2841 133.782 76.2379 134.071 76.2632 134.286C71.0854 145.584 66.3351 157.152 61.9171 168.847C61.8468 168.922 61.8467 168.922 61.9429 169.062Z" fill="white" fill-opacity="0.95"/>
</svg>
