<svg width="90" height="79" viewBox="0 0 90 79" fill="none" xmlns="http://www.w3.org/2000/svg"><path d="M0 51.275C0 22.466 26.598 4.913 30.729 2.725 33.721 1.095 36.491 0 38.389 0c1.653 0 2.747.804 2.747 2.189 0 1.384-1.385 3.015-2.747 4.109C34.57 9.045 23.85 23.315 23.85 36.759c0 3.551 1.921 6.834 4.109 7.95 2.479 1.362 14.002 3.841 14.002 18.357 0 8.509-6.856 15.9-16.459 15.9C12.886 78.967 0 69.387 0 51.275zm48.014 0c0-28.809 26.62-46.362 30.73-48.55C81.76 1.095 84.506 0 86.426 0c1.652 0 2.725.804 2.725 2.189 0 1.384-1.361 3.015-2.725 4.109-3.84 2.747-14.537 17.017-14.537 30.461 0 3.551 1.92 6.834 4.109 7.95C78.477 46.072 90 48.55 90 63.067c0 8.509-6.88 15.9-16.482 15.9-12.596 0-25.504-9.58-25.504-27.692z" fill="#CE8F2E"/></svg>