<svg width="17" height="22" viewBox="0 0 17 22" fill="none" xmlns="http://www.w3.org/2000/svg">
<path d="M12.4231 5.15625H16.6169L11.7692 0.377652V4.51172C11.7692 4.86733 12.0623 5.15625 12.4231 5.15625Z" fill="white"/>
<path d="M1.96154 22H15.0385C16.1201 22 17 21.1326 17 20.0664V6.44531H12.4231C11.3414 6.44531 10.4615 5.57795 10.4615 4.51172V0H1.96154C0.879903 0 0 0.867367 0 1.93359V20.0664C0 21.1326 0.879903 22 1.96154 22ZM4.57692 9.06641H12.4231C12.7845 9.06641 13.0769 9.35468 13.0769 9.71094C13.0769 10.0672 12.7845 10.3555 12.4231 10.3555H4.57692C4.21552 10.3555 3.92308 10.0672 3.92308 9.71094C3.92308 9.35468 4.21552 9.06641 4.57692 9.06641ZM4.57692 11.6445H12.4231C12.7845 11.6445 13.0769 11.9328 13.0769 12.2891C13.0769 12.6453 12.7845 12.9336 12.4231 12.9336H4.57692C4.21552 12.9336 3.92308 12.6453 3.92308 12.2891C3.92308 11.9328 4.21552 11.6445 4.57692 11.6445ZM4.57692 14.2227H12.4231C12.7845 14.2227 13.0769 14.5109 13.0769 14.8672C13.0769 15.2234 12.7845 15.5117 12.4231 15.5117H4.57692C4.21552 15.5117 3.92308 15.2234 3.92308 14.8672C3.92308 14.5109 4.21552 14.2227 4.57692 14.2227ZM4.57692 16.8008H9.80769C10.1691 16.8008 10.4615 17.0891 10.4615 17.4453C10.4615 17.8016 10.1691 18.0898 9.80769 18.0898H4.57692C4.21552 18.0898 3.92308 17.8016 3.92308 17.4453C3.92308 17.0891 4.21552 16.8008 4.57692 16.8008Z" fill="white"/>
</svg>
